ffmpeg started on 2016-12-07 at 14:39:40
Report written to "Output/x264/results/ffmpeg/crowd_run_2160p50slow11000k.log"
Command line:
Tools/ffmpeg/ffmpeg -benchmark -y -i Input/y4m/crowd_run_2160p50.y4m -c:v libx264 -preset slow -b:v 11000k -an Output/x264/encoded/crowd_run_2160p50slow11000k.mkv
ffmpeg version N-82227-gdb23fde Copyright (c) 2000-2016 the FFmpeg developers
  built with gcc 5.4.0 (Ubuntu 5.4.0-6ubuntu1~16.04.2) 20160609
  configuration: --prefix=/home/jaroslav/ffmpeg_build --pkg-config-flags=--static --extra-cflags=-I/home/jaroslav/ffmpeg_build/include --extra-ldflags=-L/home/jaroslav/ffmpeg_build/lib --bindir=/home/jaroslav/bin --enable-gpl --enable-libass --enable-libfdk-aac --enable-libfreetype --enable-libmp3lame --enable-libopus --enable-libtheora --enable-libvorbis --enable-libvpx --enable-libx264 --enable-libx265 --enable-nvenc --enable-libmfx --enable-libxvid --enable-libgsm --enable-libopencore-amrnb --enable-version3 --enable-nonfree
  libavutil      55. 35.100 / 55. 35.100
  libavcodec     57. 66.101 / 57. 66.101
  libavformat    57. 57.100 / 57. 57.100
  libavdevice    57.  2.100 / 57.  2.100
  libavfilter     6. 66.100 /  6. 66.100
  libswscale      4.  3.100 /  4.  3.100
  libswresample   2.  4.100 /  2.  4.100
  libpostproc    54.  2.100 / 54.  2.100
Input #0, yuv4mpegpipe, from 'Input/y4m/crowd_run_2160p50.y4m':
  Duration: 00:00:10.00, start: 0.000000, bitrate: 4976642 kb/s
    Stream #0:0: Video: rawvideo (I420 / 0x30323449), yuv420p(progressive), 3840x2160, SAR 1:1 DAR 16:9, 50 fps, 50 tbr, 50 tbn, 50 tbc
[libx264 @ 0x362b1c0] using SAR=1/1
[libx264 @ 0x362b1c0] using cpu capabilities: MMX2 SSE2Fast SSSE3 SSE4.2 AVX FMA3 AVX2 LZCNT BMI2
[libx264 @ 0x362b1c0] profile High, level 5.2
[libx264 @ 0x362b1c0] 264 - core 148 - H.264/MPEG-4 AVC codec - Copyleft 2003-2016 - http://www.videolan.org/x264.html - options: cabac=1 ref=5 deblock=1:0:0 analyse=0x3:0x113 me=hex subme=8 psy=1 psy_rd=1.00:0.00 mixed_ref=1 me_range=16 chroma_me=1 trellis=2 8x8dct=1 cqm=0 deadzone=21,11 fast_pskip=1 chroma_qp_offset=-2 threads=6 lookahead_threads=1 sliced_threads=0 nr=0 decimate=1 interlaced=0 bluray_compat=0 constrained_intra=0 bframes=3 b_pyramid=2 b_adapt=1 b_bias=0 direct=3 weightb=1 open_gop=0 weightp=2 keyint=250 keyint_min=25 scenecut=40 intra_refresh=0 rc_lookahead=50 rc=abr mbtree=1 bitrate=11000 ratetol=1.0 qcomp=0.60 qpmin=0 qpmax=69 qpstep=4 ip_ratio=1.40 aq=1:1.00
Output #0, matroska, to 'Output/x264/encoded/crowd_run_2160p50slow11000k.mkv':
  Metadata:
    encoder         : Lavf57.57.100
    Stream #0:0: Video: h264 (libx264) (H264 / 0x34363248), yuv420p, 3840x2160 [SAR 1:1 DAR 16:9], q=-1--1, 11000 kb/s, 50 fps, 1k tbn, 50 tbc
    Metadata:
      encoder         : Lavc57.66.101 libx264
    Side data:
      cpb: bitrate max/min/avg: 0/0/11000000 buffer size: 0 vbv_delay: -1
Stream mapping:
  Stream #0:0 -> #0:0 (rawvideo (native) -> h264 (libx264))
Press [q] to stop, [?] for help
frame=   19 fps=0.0 q=0.0 size=       0kB time=00:00:00.00 bitrate=N/A speed=   0x    frame=   36 fps= 35 q=0.0 size=       0kB time=00:00:00.00 bitrate=N/A speed=   0x    frame=   50 fps= 32 q=0.0 size=       0kB time=00:00:00.00 bitrate=N/A speed=   0x    frame=   57 fps= 13 q=0.0 size=       0kB time=00:00:00.00 bitrate=N/A speed=   0x    frame=   62 fps= 11 q=34.0 size=       1kB time=-00:00:00.01 bitrate=N/A speed=N/A    frame=   63 fps= 10 q=34.0 size=       1kB time=00:00:00.00 bitrate=5872.0kbits/s speed=0.000164x    frame=   67 fps= 10 q=37.0 size=       1kB time=00:00:00.08 bitrate=  72.5kbits/s speed=0.0121x    frame=   71 fps=9.6 q=45.0 size=       1kB time=00:00:00.16 bitrate=  36.5kbits/s speed=0.0217x    frame=   77 fps=9.7 q=49.0 size=       1kB time=00:00:00.28 bitrate=  20.9kbits/s speed=0.0353x    frame=   80 fps=9.4 q=49.0 size=       1kB time=00:00:00.34 bitrate=  17.2kbits/s speed=0.0401x    frame=   87 fps=9.4 q=48.0 size=       1kB time=00:00:00.48 bitrate=  12.2kbits/s speed=0.0518x    frame=   93 fps=9.5 q=48.0 size=       1kB time=00:00:00.60 bitrate=   9.8kbits/s speed=0.0614x    frame=   97 fps=9.4 q=47.0 size=       1kB time=00:00:00.68 bitrate=   8.6kbits/s speed=0.0659x    frame=  103 fps=9.3 q=47.0 size=       1kB time=00:00:00.80 bitrate=   7.3kbits/s speed=0.0721x    frame=  109 fps=9.4 q=47.0 size=       1kB time=00:00:00.92 bitrate=   6.4kbits/s speed=0.0793x    frame=  113 fps=9.3 q=47.0 size=       1kB time=00:00:01.00 bitrate=   5.9kbits/s speed=0.0823x    frame=  119 fps=9.2 q=47.0 size=       1kB time=00:00:01.12 bitrate=   5.2kbits/s speed=0.0867x    frame=  123 fps=9.1 q=47.0 size=       1kB time=00:00:01.20 bitrate=   4.9kbits/s speed=0.0888x    frame=  130 fps=9.3 q=46.0 size=       1kB time=00:00:01.34 bitrate=   4.4kbits/s speed=0.0955x    frame=  131 fps=9.0 q=46.0 size=       1kB time=00:00:01.36 bitrate=   4.3kbits/s speed=0.0932x    frame=  139 fps=8.9 q=46.0 size=       1kB time=00:00:01.52 bitrate=   3.9kbits/s speed=0.0977x    frame=  145 fps=9.0 q=46.0 size=       1kB time=00:00:01.64 bitrate=   3.6kbits/s speed=0.102x    frame=  147 fps=8.8 q=46.0 size=       1kB time=00:00:01.68 bitrate=   3.5kbits/s speed=0.101x    frame=  152 fps=8.8 q=46.0 size=       1kB time=00:00:01.78 bitrate=   3.3kbits/s speed=0.103x    frame=  156 fps=8.8 q=46.0 size=       1kB time=00:00:01.86 bitrate=   3.2kbits/s speed=0.105x    frame=  161 fps=8.8 q=45.0 size=       1kB time=00:00:01.96 bitrate=   3.0kbits/s speed=0.107x    frame=  165 fps=8.8 q=45.0 size=       1kB time=00:00:02.04 bitrate=   2.9kbits/s speed=0.108x    frame=  169 fps=8.7 q=45.0 size=       1kB time=00:00:02.12 bitrate=   2.8kbits/s speed=0.11x    frame=  173 fps=8.7 q=45.0 size=       1kB time=00:00:02.20 bitrate=   2.7kbits/s speed=0.111x    frame=  177 fps=8.7 q=45.0 size=       1kB time=00:00:02.28 bitrate=   2.6kbits/s speed=0.112x    frame=  181 fps=8.6 q=45.0 size=       1kB time=00:00:02.36 bitrate=   2.5kbits/s speed=0.113x    frame=  187 fps=8.6 q=45.0 size=       1kB time=00:00:02.48 bitrate=   2.4kbits/s speed=0.114x    frame=  192 fps=8.6 q=45.0 size=       1kB time=00:00:02.58 bitrate=   2.3kbits/s speed=0.115x    frame=  195 fps=8.5 q=45.0 size=       1kB time=00:00:02.64 bitrate=   2.2kbits/s speed=0.115x    frame=  202 fps=8.6 q=45.0 size=       1kB time=00:00:02.78 bitrate=   2.1kbits/s speed=0.118x    frame=  204 fps=8.4 q=45.0 size=       1kB time=00:00:02.82 bitrate=   2.1kbits/s speed=0.117x    frame=  211 fps=8.4 q=45.0 size=       1kB time=00:00:02.96 bitrate=   2.0kbits/s speed=0.118x    frame=  217 fps=8.5 q=45.0 size=       1kB time=00:00:03.08 bitrate=   1.9kbits/s speed=0.12x    frame=  220 fps=8.4 q=45.0 size=       1kB time=00:00:03.14 bitrate=   1.9kbits/s speed=0.12x    frame=  224 fps=8.4 q=45.0 size=       1kB time=00:00:03.22 bitrate=   1.8kbits/s speed=0.12x    frame=  229 fps=8.4 q=45.0 size=       1kB time=00:00:03.32 bitrate=   1.8kbits/s speed=0.122x    frame=  231 fps=8.3 q=45.0 size=       1kB time=00:00:03.36 bitrate=   1.7kbits/s speed=0.121x    frame=  236 fps=8.3 q=45.0 size=       1kB time=00:00:03.46 bitrate=   1.7kbits/s speed=0.122x    frame=  239 fps=8.3 q=45.0 size=       1kB time=00:00:03.52 bitrate=   1.7kbits/s speed=0.122x    frame=  244 fps=8.3 q=45.0 size=    5133kB time=00:00:03.62 bitrate=11612.1kbits/s speed=0.123x    frame=  247 fps=8.3 q=45.0 size=    5133kB time=00:00:03.68 bitrate=11422.8kbits/s speed=0.123x    frame=  252 fps=8.3 q=45.0 size=    5133kB time=00:00:03.78 bitrate=11120.7kbits/s speed=0.124x    frame=  256 fps=8.2 q=45.0 size=    5133kB time=00:00:03.86 bitrate=10890.3kbits/s speed=0.124x    frame=  260 fps=8.2 q=45.0 size=    5133kB time=00:00:03.94 bitrate=10669.2kbits/s speed=0.125x    frame=  265 fps=8.2 q=45.0 size=    5133kB time=00:00:04.04 bitrate=10405.2kbits/s speed=0.126x    frame=  268 fps=8.2 q=45.0 size=    5133kB time=00:00:04.10 bitrate=10252.9kbits/s speed=0.125x    frame=  273 fps=8.2 q=45.0 size=    5133kB time=00:00:04.20 bitrate=10008.9kbits/s speed=0.126x    frame=  275 fps=8.1 q=45.0 size=    5133kB time=00:00:04.24 bitrate=9914.5kbits/s speed=0.126x    frame=  281 fps=8.2 q=45.0 size=    5133kB time=00:00:04.36 bitrate=9641.7kbits/s speed=0.127x    frame=  283 fps=8.1 q=45.0 size=    5133kB time=00:00:04.40 bitrate=9554.0kbits/s speed=0.126x    frame=  289 fps=8.2 q=45.0 size=    5133kB time=00:00:04.52 bitrate=9300.4kbits/s speed=0.128x    frame=  291 fps=8.1 q=45.0 size=    5133kB time=00:00:04.56 bitrate=9218.9kbits/s speed=0.127x    frame=  297 fps=8.1 q=45.0 size=    5133kB time=00:00:04.68 bitrate=8982.6kbits/s speed=0.128x    frame=  299 fps=8.0 q=45.0 size=    5133kB time=00:00:04.72 bitrate=8906.4kbits/s speed=0.127x    frame=  304 fps=8.0 q=45.0 size=    5133kB time=00:00:04.82 bitrate=8721.7kbits/s speed=0.127x    frame=  306 fps=7.8 q=42.0 size=    5133kB time=00:00:04.86 bitrate=8649.9kbits/s speed=0.124x    frame=  312 fps=7.9 q=45.0 size=    6919kB time=00:00:04.98 bitrate=11378.8kbits/s speed=0.126x    frame=  317 fps=7.9 q=45.0 size=    6919kB time=00:00:05.08 bitrate=11154.8kbits/s speed=0.126x    frame=  321 fps=7.8 q=45.0 size=    6919kB time=00:00:05.16 bitrate=10981.9kbits/s speed=0.126x    frame=  326 fps=7.9 q=45.0 size=    6919kB time=00:00:05.26 bitrate=10773.2kbits/s speed=0.127x    frame=  329 fps=7.8 q=45.0 size=    6919kB time=00:00:05.32 bitrate=10651.7kbits/s speed=0.127x    frame=  334 fps=7.8 q=45.0 size=    6919kB time=00:00:05.42 bitrate=10455.2kbits/s speed=0.127x    frame=  337 fps=7.8 q=45.0 size=    6919kB time=00:00:05.48 bitrate=10340.7kbits/s speed=0.127x    frame=  341 fps=7.8 q=45.0 size=    6919kB time=00:00:05.56 bitrate=10192.0kbits/s speed=0.127x    frame=  345 fps=7.8 q=45.0 size=    6919kB time=00:00:05.64 bitrate=10047.4kbits/s speed=0.128x    frame=  349 fps=7.8 q=45.0 size=    6919kB time=00:00:05.72 bitrate=9906.9kbits/s speed=0.128x    frame=  353 fps=7.8 q=45.0 size=    6919kB time=00:00:05.80 bitrate=9770.3kbits/s speed=0.128x    frame=  357 fps=7.8 q=45.0 size=    6919kB time=00:00:05.88 bitrate=9637.4kbits/s speed=0.128x    frame=  361 fps=7.8 q=45.0 size=    6919kB time=00:00:05.96 bitrate=9508.1kbits/s speed=0.129x    frame=  365 fps=7.8 q=45.0 size=    6919kB time=00:00:06.04 bitrate=9382.2kbits/s speed=0.129x    frame=  370 fps=7.8 q=45.0 size=    6919kB time=00:00:06.14 bitrate=9229.4kbits/s speed=0.129x    frame=  373 fps=7.8 q=45.0 size=    6919kB time=00:00:06.20 bitrate=9140.1kbits/s speed=0.129x    frame=  377 fps=7.8 q=45.0 size=    6919kB time=00:00:06.28 bitrate=9023.7kbits/s speed=0.129x    frame=  381 fps=7.8 q=45.0 size=    6919kB time=00:00:06.36 bitrate=8910.2kbits/s speed=0.13x    frame=  385 fps=7.8 q=45.0 size=    6919kB time=00:00:06.44 bitrate=8799.5kbits/s speed=0.13x    frame=  391 fps=7.8 q=45.0 size=    6919kB time=00:00:06.56 bitrate=8638.6kbits/s speed=0.131x    frame=  394 fps=7.8 q=45.0 size=    6919kB time=00:00:06.62 bitrate=8560.3kbits/s speed=0.13x    frame=  398 fps=7.8 q=45.0 size=    6919kB time=00:00:06.70 bitrate=8458.1kbits/s speed=0.131x    frame=  402 fps=7.8 q=45.0 size=    6919kB time=00:00:06.78 bitrate=8358.3kbits/s speed=0.131x    frame=  405 fps=7.7 q=45.0 size=    6919kB time=00:00:06.84 bitrate=8285.0kbits/s speed=0.131x    frame=  410 fps=7.7 q=45.0 size=    6919kB time=00:00:06.94 bitrate=8165.6kbits/s speed=0.131x    frame=  414 fps=7.7 q=45.0 size=    6919kB time=00:00:07.02 bitrate=8072.6kbits/s speed=0.131x    frame=  418 fps=7.7 q=45.0 size=    6919kB time=00:00:07.10 bitrate=7981.6kbits/s speed=0.131x    frame=  421 fps=7.7 q=45.0 size=    6919kB time=00:00:07.16 bitrate=7914.8kbits/s speed=0.131x    frame=  426 fps=7.7 q=45.0 size=    6919kB time=00:00:07.26 bitrate=7805.8kbits/s speed=0.132x    frame=  430 fps=7.7 q=45.0 size=    6919kB time=00:00:07.34 bitrate=7720.7kbits/s speed=0.132x    frame=  433 fps=7.7 q=44.0 size=    6919kB time=00:00:07.40 bitrate=7658.1kbits/s speed=0.132x    frame=  438 fps=7.7 q=44.0 size=    6919kB time=00:00:07.50 bitrate=7556.0kbits/s speed=0.132x    frame=  442 fps=7.7 q=44.0 size=    6919kB time=00:00:07.58 bitrate=7476.3kbits/s speed=0.132x    frame=  447 fps=7.7 q=44.0 size=    6919kB time=00:00:07.68 bitrate=7378.9kbits/s speed=0.133x    frame=  449 fps=7.7 q=44.0 size=    6919kB time=00:00:07.72 bitrate=7340.7kbits/s speed=0.132x    frame=  455 fps=7.7 q=44.0 size=    6919kB time=00:00:07.84 bitrate=7228.4kbits/s speed=0.133x    frame=  457 fps=7.7 q=44.0 size=    6919kB time=00:00:07.88 bitrate=7191.7kbits/s speed=0.132x    frame=  463 fps=7.7 q=44.0 size=    6919kB time=00:00:08.00 bitrate=7083.8kbits/s speed=0.133x    frame=  465 fps=7.7 q=44.0 size=    6919kB time=00:00:08.04 bitrate=7048.6kbits/s speed=0.133x    frame=  469 fps=7.7 q=44.0 size=    6919kB time=00:00:08.12 bitrate=6979.1kbits/s speed=0.133x    frame=  474 fps=7.7 q=44.0 size=    6919kB time=00:00:08.22 bitrate=6894.2kbits/s speed=0.133x    frame=  479 fps=7.7 q=44.0 size=    6919kB time=00:00:08.32 bitrate=6811.4kbits/s speed=0.134x    frame=  481 fps=7.7 q=44.0 size=    6919kB time=00:00:08.36 bitrate=6778.8kbits/s speed=0.133x    frame=  486 fps=7.7 q=44.0 size=    6919kB time=00:00:08.46 bitrate=6698.7kbits/s speed=0.134x    frame=  490 fps=7.7 q=44.0 size=    6919kB time=00:00:08.54 bitrate=6635.9kbits/s speed=0.134x    frame=  494 fps=7.7 q=44.0 size=    6919kB time=00:00:08.62 bitrate=6574.4kbits/s speed=0.134x    frame=  499 fps=7.7 q=44.0 size=    6919kB time=00:00:08.72 bitrate=6499.0kbits/s speed=0.134x    frame=  500 fps=7.6 q=44.0 size=    6919kB time=00:00:08.74 bitrate=6484.1kbits/s speed=0.133x    frame=  500 fps=6.9 q=-1.0 Lsize=   13418kB time=00:00:09.94 bitrate=11057.2kbits/s speed=0.138x    
video:13413kB audio:0kB subtitle:0kB other streams:0kB global headers:0kB muxing overhead: 0.033585%
bench: utime=255.556s
bench: maxrss=2165068kB
[libx264 @ 0x362b1c0] frame I:2     Avg QP:34.29  size:410904
[libx264 @ 0x362b1c0] frame P:126   Avg QP:43.64  size: 53239
[libx264 @ 0x362b1c0] frame B:372   Avg QP:46.70  size: 16679
[libx264 @ 0x362b1c0] consecutive B-frames:  0.8%  0.0%  0.0% 99.2%
[libx264 @ 0x362b1c0] mb I  I16..4: 20.5% 71.3%  8.2%
[libx264 @ 0x362b1c0] mb P  I16..4:  2.4%  3.7%  0.0%  P16..4: 34.2%  4.9%  4.9%  0.0%  0.0%    skip:49.9%
[libx264 @ 0x362b1c0] mb B  I16..4:  0.0%  0.1%  0.0%  B16..8: 39.2%  1.2%  0.1%  direct: 0.2%  skip:59.2%  L0:41.1% L1:58.3% BI: 0.5%
[libx264 @ 0x362b1c0] final ratefactor: 36.36
[libx264 @ 0x362b1c0] 8x8 transform intra:63.0% inter:88.9%
[libx264 @ 0x362b1c0] direct mvs  spatial:98.9% temporal:1.1%
[libx264 @ 0x362b1c0] coded y,uvDC,uvAC intra: 31.1% 50.4% 17.1% inter: 2.5% 5.2% 0.1%
[libx264 @ 0x362b1c0] i16 v,h,dc,p: 36% 22%  7% 35%
[libx264 @ 0x362b1c0] i8 v,h,dc,ddl,ddr,vr,hd,vl,hu:  8%  4%  7% 12% 16% 15% 14% 13% 11%
[libx264 @ 0x362b1c0] i4 v,h,dc,ddl,ddr,vr,hd,vl,hu:  5%  3%  2% 14% 17% 15% 16% 12% 15%
[libx264 @ 0x362b1c0] i8c dc,h,v,p: 51% 18% 17% 15%
[libx264 @ 0x362b1c0] Weighted P-Frames: Y:1.6% UV:0.8%
[libx264 @ 0x362b1c0] ref P L0: 66.9%  5.9% 16.6%  5.1%  5.4%  0.1%
[libx264 @ 0x362b1c0] ref B L0: 92.7%  5.5%  1.3%  0.5%
[libx264 @ 0x362b1c0] ref B L1: 98.3%  1.7%
[libx264 @ 0x362b1c0] kb/s:10987.69
